<svg xmlns="http://www.w3.org/2000/svg" width="24" height="24" viewBox="0 0 24 24">
	<path fill="none" stroke-width="var(--test)" d="
		M	0 0
		L	24 0
		M	0 4
		L	24 4
		M	0 8
		L	24 8
		M	0 12
		L	24 12
		M	0 16
		L	24 16
		M	0 20
		L	24 20
		M	0 24
		L	24 24

		M	0 0
		L	0 24
		M	4 0
		L	4 24
		M	8 0
		L	8 24
		M	12 0
		L	12 24
		M	16 0
		L	16 24
		M	20 0
		L	20 24
		M	24 0
		L	24 24
		
		M	0 2
		L	24 2
		M	0 22
		L	24 22
		M	2 0
		L	2 24
		M	22 0
		L	22 24

		M	0 0
		L	24 24
		M	24 0
		L	0 24

		M	12 2
		A	10 10 0 0 0 12 22
			10 10 0 0 0 12 2
	"></path>
</svg>